<mxfile host="app.diagrams.net" modified="2023-08-12T02:42:52.214Z" agent="Mozilla/5.0 (Macintosh; Intel Mac OS X 10_15_7) AppleWebKit/537.36 (KHTML, like Gecko) Chrome/115.0.0.0 Safari/537.36" etag="IC-F-q5Tj0Dx_x2thSlE" version="21.6.8" type="github">
  <diagram name="第 1 页" id="941iFahx69YeICXWEghH">
    <mxGraphModel dx="2763" dy="1165" grid="1" gridSize="10" guides="1" tooltips="1" connect="1" arrows="1" fold="1" page="1" pageScale="1" pageWidth="827" pageHeight="1169" math="0" shadow="0">
      <root>
        <mxCell id="0" />
        <mxCell id="1" parent="0" />
        <mxCell id="XWLTt_RECqJJCjPc9fA--6" style="edgeStyle=orthogonalEdgeStyle;rounded=0;orthogonalLoop=1;jettySize=auto;html=1;entryX=0;entryY=0.5;entryDx=0;entryDy=0;" parent="1" source="XWLTt_RECqJJCjPc9fA--1" target="XWLTt_RECqJJCjPc9fA--4" edge="1">
          <mxGeometry relative="1" as="geometry" />
        </mxCell>
        <mxCell id="XWLTt_RECqJJCjPc9fA--7" value="&lt;font style=&quot;font-size: 12px;&quot;&gt;prototype&lt;/font&gt;" style="edgeLabel;html=1;align=center;verticalAlign=middle;resizable=0;points=[];" parent="XWLTt_RECqJJCjPc9fA--6" vertex="1" connectable="0">
          <mxGeometry x="-0.1365" relative="1" as="geometry">
            <mxPoint x="13" as="offset" />
          </mxGeometry>
        </mxCell>
        <mxCell id="XWLTt_RECqJJCjPc9fA--10" style="edgeStyle=orthogonalEdgeStyle;rounded=0;orthogonalLoop=1;jettySize=auto;html=1;" parent="1" source="XWLTt_RECqJJCjPc9fA--1" target="XWLTt_RECqJJCjPc9fA--9" edge="1">
          <mxGeometry relative="1" as="geometry" />
        </mxCell>
        <mxCell id="XWLTt_RECqJJCjPc9fA--11" value="&lt;font style=&quot;font-size: 12px;&quot;&gt;__proto__&lt;/font&gt;" style="edgeLabel;html=1;align=center;verticalAlign=middle;resizable=0;points=[];" parent="XWLTt_RECqJJCjPc9fA--10" vertex="1" connectable="0">
          <mxGeometry x="-0.2733" y="-1" relative="1" as="geometry">
            <mxPoint x="1" y="13" as="offset" />
          </mxGeometry>
        </mxCell>
        <mxCell id="XWLTt_RECqJJCjPc9fA--1" value="&lt;font style=&quot;font-size: 19px;&quot;&gt;gen&lt;br&gt;&lt;div style=&quot;color: rgb(212, 212, 212); background-color: rgb(30, 30, 30); font-family: Menlo, Monaco, &amp;quot;Courier New&amp;quot;, monospace; font-size: 12px; line-height: 18px;&quot;&gt;ƒ *gen(){}&lt;/div&gt;&lt;/font&gt;&lt;div style=&quot;color: rgb(212, 212, 212); background-color: rgb(30, 30, 30); font-family: Menlo, Monaco, &amp;quot;Courier New&amp;quot;, monospace; line-height: 18px;&quot;&gt;&lt;font style=&quot;font-size: 12px;&quot;&gt;[object GeneratorFunction]&lt;/font&gt;&lt;/div&gt;" style="rounded=0;whiteSpace=wrap;html=1;" parent="1" vertex="1">
          <mxGeometry x="180" y="290" width="220" height="80" as="geometry" />
        </mxCell>
        <mxCell id="XWLTt_RECqJJCjPc9fA--67" style="edgeStyle=orthogonalEdgeStyle;rounded=0;orthogonalLoop=1;jettySize=auto;html=1;entryX=0.5;entryY=0;entryDx=0;entryDy=0;" parent="1" source="XWLTt_RECqJJCjPc9fA--4" target="XWLTt_RECqJJCjPc9fA--66" edge="1">
          <mxGeometry relative="1" as="geometry" />
        </mxCell>
        <mxCell id="XWLTt_RECqJJCjPc9fA--69" value="&lt;font style=&quot;font-size: 13px;&quot;&gt;__proto__&lt;/font&gt;" style="edgeLabel;html=1;align=center;verticalAlign=middle;resizable=0;points=[];" parent="XWLTt_RECqJJCjPc9fA--67" vertex="1" connectable="0">
          <mxGeometry x="0.0224" y="2" relative="1" as="geometry">
            <mxPoint as="offset" />
          </mxGeometry>
        </mxCell>
        <mxCell id="XWLTt_RECqJJCjPc9fA--4" value="&lt;font style=&quot;font-size: 19px;&quot;&gt;gen.prototype&lt;br&gt;&lt;div style=&quot;color: rgb(212, 212, 212); background-color: rgb(30, 30, 30); font-family: Menlo, Monaco, &amp;quot;Courier New&amp;quot;, monospace; font-size: 12px; line-height: 18px;&quot;&gt;Generator&amp;nbsp;{}&lt;/div&gt;&lt;/font&gt;&lt;div style=&quot;color: rgb(212, 212, 212); background-color: rgb(30, 30, 30); font-family: Menlo, Monaco, &amp;quot;Courier New&amp;quot;, monospace; line-height: 18px;&quot;&gt;&lt;font style=&quot;font-size: 12px;&quot;&gt;[object Generator]&lt;/font&gt;&lt;/div&gt;" style="rounded=0;whiteSpace=wrap;html=1;" parent="1" vertex="1">
          <mxGeometry x="540" y="295" width="160" height="70" as="geometry" />
        </mxCell>
        <mxCell id="XWLTt_RECqJJCjPc9fA--51" style="edgeStyle=orthogonalEdgeStyle;rounded=0;orthogonalLoop=1;jettySize=auto;html=1;entryX=0.612;entryY=0.02;entryDx=0;entryDy=0;entryPerimeter=0;" parent="1" edge="1">
          <mxGeometry relative="1" as="geometry">
            <mxPoint x="238.99999999999977" y="520" as="sourcePoint" />
            <mxPoint x="239.16000000000008" y="631.5999999999999" as="targetPoint" />
          </mxGeometry>
        </mxCell>
        <mxCell id="XWLTt_RECqJJCjPc9fA--52" value="&lt;font style=&quot;font-size: 13px;&quot;&gt;__proto__&lt;/font&gt;" style="edgeLabel;html=1;align=center;verticalAlign=middle;resizable=0;points=[];" parent="XWLTt_RECqJJCjPc9fA--51" vertex="1" connectable="0">
          <mxGeometry x="-0.567" relative="1" as="geometry">
            <mxPoint y="-4" as="offset" />
          </mxGeometry>
        </mxCell>
        <mxCell id="XWLTt_RECqJJCjPc9fA--56" style="edgeStyle=orthogonalEdgeStyle;rounded=0;orthogonalLoop=1;jettySize=auto;html=1;exitX=0;exitY=0.25;exitDx=0;exitDy=0;" parent="1" source="XWLTt_RECqJJCjPc9fA--9" edge="1">
          <mxGeometry relative="1" as="geometry">
            <mxPoint x="184" y="476" as="sourcePoint" />
            <mxPoint x="58" y="476" as="targetPoint" />
          </mxGeometry>
        </mxCell>
        <mxCell id="XWLTt_RECqJJCjPc9fA--57" value="&lt;font style=&quot;font-size: 13px;&quot;&gt;&amp;nbsp; constructor&amp;nbsp;&amp;nbsp;&lt;/font&gt;" style="edgeLabel;html=1;align=center;verticalAlign=middle;resizable=0;points=[];" parent="XWLTt_RECqJJCjPc9fA--56" vertex="1" connectable="0">
          <mxGeometry x="0.074" y="1" relative="1" as="geometry">
            <mxPoint as="offset" />
          </mxGeometry>
        </mxCell>
        <mxCell id="XWLTt_RECqJJCjPc9fA--71" style="edgeStyle=orthogonalEdgeStyle;rounded=0;orthogonalLoop=1;jettySize=auto;html=1;entryX=0.01;entryY=0.6;entryDx=0;entryDy=0;entryPerimeter=0;" parent="1" source="XWLTt_RECqJJCjPc9fA--9" target="XWLTt_RECqJJCjPc9fA--66" edge="1">
          <mxGeometry relative="1" as="geometry">
            <mxPoint x="520" y="490" as="targetPoint" />
            <Array as="points">
              <mxPoint x="430" y="492" />
              <mxPoint x="430" y="492" />
            </Array>
          </mxGeometry>
        </mxCell>
        <mxCell id="XWLTt_RECqJJCjPc9fA--72" value="prototype" style="edgeLabel;html=1;align=center;verticalAlign=middle;resizable=0;points=[];" parent="XWLTt_RECqJJCjPc9fA--71" vertex="1" connectable="0">
          <mxGeometry x="0.0439" relative="1" as="geometry">
            <mxPoint as="offset" />
          </mxGeometry>
        </mxCell>
        <mxCell id="XWLTt_RECqJJCjPc9fA--9" value="&lt;font style=&quot;font-size: 19px;&quot;&gt;GeneratorFunction.&amp;nbsp;prototype&lt;br&gt;&lt;div style=&quot;color: rgb(212, 212, 212); background-color: rgb(30, 30, 30); font-family: Menlo, Monaco, &amp;quot;Courier New&amp;quot;, monospace; font-size: 12px; line-height: 18px;&quot;&gt;&lt;div style=&quot;line-height: 18px;&quot;&gt;GeneratorFunction&amp;nbsp;{}&lt;/div&gt;&lt;/div&gt;&lt;/font&gt;&lt;div style=&quot;color: rgb(212, 212, 212); background-color: rgb(30, 30, 30); font-family: Menlo, Monaco, &amp;quot;Courier New&amp;quot;, monospace; line-height: 18px;&quot;&gt;&lt;font style=&quot;font-size: 12px;&quot;&gt;[object GeneratorFunction]&lt;/font&gt;&lt;/div&gt;" style="rounded=0;whiteSpace=wrap;html=1;" parent="1" vertex="1">
          <mxGeometry x="160" y="460" width="260" height="60" as="geometry" />
        </mxCell>
        <mxCell id="XWLTt_RECqJJCjPc9fA--13" value="&lt;font style=&quot;font-size: 12px;&quot;&gt;__proto__&lt;/font&gt;" style="edgeStyle=orthogonalEdgeStyle;rounded=0;orthogonalLoop=1;jettySize=auto;html=1;entryX=0.5;entryY=0;entryDx=0;entryDy=0;exitX=0.5;exitY=0;exitDx=0;exitDy=0;" parent="1" source="XWLTt_RECqJJCjPc9fA--12" target="XWLTt_RECqJJCjPc9fA--4" edge="1">
          <mxGeometry relative="1" as="geometry">
            <Array as="points">
              <mxPoint x="5" y="260" />
              <mxPoint x="620" y="260" />
            </Array>
          </mxGeometry>
        </mxCell>
        <mxCell id="sGgiayyM3UHPCmAd2KGd-20" style="edgeStyle=orthogonalEdgeStyle;rounded=0;orthogonalLoop=1;jettySize=auto;html=1;entryX=1;entryY=0.5;entryDx=0;entryDy=0;strokeWidth=3;strokeColor=#FF3333;dashed=1;exitX=0.372;exitY=-0.003;exitDx=0;exitDy=0;exitPerimeter=0;" edge="1" parent="1" source="XWLTt_RECqJJCjPc9fA--12" target="sGgiayyM3UHPCmAd2KGd-3">
          <mxGeometry relative="1" as="geometry">
            <mxPoint x="733.5" y="824.93" as="targetPoint" />
            <mxPoint x="50" y="304.93" as="sourcePoint" />
            <Array as="points">
              <mxPoint x="-19" y="305" />
              <mxPoint x="-20" y="220" />
              <mxPoint x="733" y="220" />
              <mxPoint x="733" y="815" />
            </Array>
          </mxGeometry>
        </mxCell>
        <mxCell id="sGgiayyM3UHPCmAd2KGd-21" value="&lt;font color=&quot;#ff3333&quot; style=&quot;font-size: 14px;&quot;&gt;&amp;nbsp; [Symbol.iterator]&amp;nbsp;&amp;nbsp;&lt;/font&gt;" style="edgeLabel;html=1;align=center;verticalAlign=middle;resizable=0;points=[];" vertex="1" connectable="0" parent="sGgiayyM3UHPCmAd2KGd-20">
          <mxGeometry x="0.8273" y="1" relative="1" as="geometry">
            <mxPoint y="-1" as="offset" />
          </mxGeometry>
        </mxCell>
        <mxCell id="XWLTt_RECqJJCjPc9fA--12" value="&lt;font style=&quot;font-size: 19px;&quot;&gt;g = gen()&lt;br&gt;&lt;div style=&quot;color: rgb(212, 212, 212); background-color: rgb(30, 30, 30); font-family: Menlo, Monaco, &amp;quot;Courier New&amp;quot;, monospace; font-size: 12px; line-height: 18px;&quot;&gt;ƒ *gen(){}&lt;/div&gt;&lt;/font&gt;&lt;div style=&quot;color: rgb(212, 212, 212); background-color: rgb(30, 30, 30); font-family: Menlo, Monaco, &amp;quot;Courier New&amp;quot;, monospace; line-height: 18px;&quot;&gt;&lt;font style=&quot;font-size: 12px;&quot;&gt;[object &lt;/font&gt;Generator]&lt;/div&gt;" style="rounded=0;whiteSpace=wrap;html=1;" parent="1" vertex="1">
          <mxGeometry x="-90" y="295" width="190" height="70" as="geometry" />
        </mxCell>
        <mxCell id="XWLTt_RECqJJCjPc9fA--22" style="edgeStyle=orthogonalEdgeStyle;rounded=0;orthogonalLoop=1;jettySize=auto;html=1;entryX=0.5;entryY=0;entryDx=0;entryDy=0;" parent="1" edge="1">
          <mxGeometry relative="1" as="geometry">
            <mxPoint x="292" y="709.9999999999995" as="sourcePoint" />
            <mxPoint x="292" y="797" as="targetPoint" />
          </mxGeometry>
        </mxCell>
        <mxCell id="XWLTt_RECqJJCjPc9fA--23" value="&lt;font style=&quot;font-size: 13px;&quot;&gt;__proto__&lt;/font&gt;" style="edgeLabel;html=1;align=center;verticalAlign=middle;resizable=0;points=[];" parent="XWLTt_RECqJJCjPc9fA--22" vertex="1" connectable="0">
          <mxGeometry x="-0.27" y="-1" relative="1" as="geometry">
            <mxPoint x="1" y="10" as="offset" />
          </mxGeometry>
        </mxCell>
        <mxCell id="XWLTt_RECqJJCjPc9fA--27" style="edgeStyle=orthogonalEdgeStyle;rounded=0;orthogonalLoop=1;jettySize=auto;html=1;exitX=0;exitY=0.75;exitDx=0;exitDy=0;entryX=1;entryY=0.75;entryDx=0;entryDy=0;" parent="1" source="XWLTt_RECqJJCjPc9fA--17" target="XWLTt_RECqJJCjPc9fA--24" edge="1">
          <mxGeometry relative="1" as="geometry">
            <Array as="points">
              <mxPoint x="180" y="638" />
              <mxPoint x="90" y="638" />
            </Array>
          </mxGeometry>
        </mxCell>
        <mxCell id="XWLTt_RECqJJCjPc9fA--28" value="&lt;font style=&quot;font-size: 13px;&quot;&gt;&amp;nbsp; constructor&amp;nbsp;&amp;nbsp;&lt;/font&gt;" style="edgeLabel;html=1;align=center;verticalAlign=middle;resizable=0;points=[];" parent="XWLTt_RECqJJCjPc9fA--27" vertex="1" connectable="0">
          <mxGeometry x="0.1847" y="2" relative="1" as="geometry">
            <mxPoint as="offset" />
          </mxGeometry>
        </mxCell>
        <mxCell id="XWLTt_RECqJJCjPc9fA--17" value="&lt;font style=&quot;font-size: 19px;&quot;&gt;Function.prototype&lt;br&gt;&lt;div style=&quot;color: rgb(212, 212, 212); background-color: rgb(30, 30, 30); font-family: Menlo, Monaco, &amp;quot;Courier New&amp;quot;, monospace; font-size: 12px; line-height: 18px;&quot;&gt;&lt;div style=&quot;line-height: 18px;&quot;&gt;f () { ... }&lt;/div&gt;&lt;/div&gt;&lt;/font&gt;&lt;div style=&quot;color: rgb(212, 212, 212); background-color: rgb(30, 30, 30); font-family: Menlo, Monaco, &amp;quot;Courier New&amp;quot;, monospace; line-height: 18px;&quot;&gt;&lt;font style=&quot;font-size: 12px;&quot;&gt;[object Function]&lt;/font&gt;&lt;/div&gt;" style="rounded=0;whiteSpace=wrap;html=1;" parent="1" vertex="1">
          <mxGeometry x="180" y="630" width="180" height="80" as="geometry" />
        </mxCell>
        <mxCell id="XWLTt_RECqJJCjPc9fA--20" style="edgeStyle=orthogonalEdgeStyle;rounded=0;orthogonalLoop=1;jettySize=auto;html=1;exitX=1;exitY=0.5;exitDx=0;exitDy=0;entryX=0;entryY=0.5;entryDx=0;entryDy=0;" parent="1" source="XWLTt_RECqJJCjPc9fA--18" target="XWLTt_RECqJJCjPc9fA--19" edge="1">
          <mxGeometry relative="1" as="geometry" />
        </mxCell>
        <mxCell id="XWLTt_RECqJJCjPc9fA--21" value="&lt;font style=&quot;font-size: 13px;&quot;&gt;&amp;nbsp; __proto__&amp;nbsp;&amp;nbsp;&lt;/font&gt;" style="edgeLabel;html=1;align=center;verticalAlign=middle;resizable=0;points=[];" parent="XWLTt_RECqJJCjPc9fA--20" vertex="1" connectable="0">
          <mxGeometry x="0.0108" relative="1" as="geometry">
            <mxPoint as="offset" />
          </mxGeometry>
        </mxCell>
        <mxCell id="XWLTt_RECqJJCjPc9fA--44" style="edgeStyle=orthogonalEdgeStyle;rounded=0;orthogonalLoop=1;jettySize=auto;html=1;exitX=0;exitY=0.25;exitDx=0;exitDy=0;entryX=1;entryY=0.25;entryDx=0;entryDy=0;" parent="1" source="XWLTt_RECqJJCjPc9fA--18" target="XWLTt_RECqJJCjPc9fA--43" edge="1">
          <mxGeometry relative="1" as="geometry">
            <Array as="points">
              <mxPoint x="190" y="817" />
            </Array>
          </mxGeometry>
        </mxCell>
        <mxCell id="XWLTt_RECqJJCjPc9fA--45" value="&lt;font style=&quot;font-size: 13px;&quot;&gt;constructor&lt;/font&gt;" style="edgeLabel;html=1;align=center;verticalAlign=middle;resizable=0;points=[];" parent="XWLTt_RECqJJCjPc9fA--44" vertex="1" connectable="0">
          <mxGeometry x="-0.2694" relative="1" as="geometry">
            <mxPoint x="-24" as="offset" />
          </mxGeometry>
        </mxCell>
        <mxCell id="XWLTt_RECqJJCjPc9fA--18" value="&lt;font style=&quot;font-size: 19px;&quot;&gt;Object.prototype&lt;br&gt;&lt;div style=&quot;color: rgb(212, 212, 212); background-color: rgb(30, 30, 30); font-family: Menlo, Monaco, &amp;quot;Courier New&amp;quot;, monospace; font-size: 12px; line-height: 18px;&quot;&gt;&lt;div style=&quot;line-height: 18px;&quot;&gt;{ ... }&lt;/div&gt;&lt;/div&gt;&lt;/font&gt;&lt;div style=&quot;color: rgb(212, 212, 212); background-color: rgb(30, 30, 30); font-family: Menlo, Monaco, &amp;quot;Courier New&amp;quot;, monospace; line-height: 18px;&quot;&gt;&lt;font style=&quot;font-size: 12px;&quot;&gt;[object Object]&lt;/font&gt;&lt;/div&gt;" style="rounded=0;whiteSpace=wrap;html=1;" parent="1" vertex="1">
          <mxGeometry x="190" y="797" width="160" height="70" as="geometry" />
        </mxCell>
        <mxCell id="XWLTt_RECqJJCjPc9fA--19" value="&lt;font style=&quot;font-size: 19px;&quot;&gt;null&lt;br&gt;&lt;div style=&quot;color: rgb(212, 212, 212); background-color: rgb(30, 30, 30); font-family: Menlo, Monaco, &amp;quot;Courier New&amp;quot;, monospace; font-size: 12px; line-height: 18px;&quot;&gt;&lt;div style=&quot;line-height: 18px;&quot;&gt;null&lt;br&gt;[object Null]&lt;br&gt;&lt;/div&gt;&lt;/div&gt;&lt;/font&gt;" style="rounded=0;whiteSpace=wrap;html=1;" parent="1" vertex="1">
          <mxGeometry x="304" y="910" width="110" height="60" as="geometry" />
        </mxCell>
        <mxCell id="XWLTt_RECqJJCjPc9fA--25" style="edgeStyle=orthogonalEdgeStyle;rounded=0;orthogonalLoop=1;jettySize=auto;html=1;exitX=1.002;exitY=0.397;exitDx=0;exitDy=0;exitPerimeter=0;entryX=0.112;entryY=-0.006;entryDx=0;entryDy=0;entryPerimeter=0;" parent="1" source="XWLTt_RECqJJCjPc9fA--24" target="XWLTt_RECqJJCjPc9fA--17" edge="1">
          <mxGeometry relative="1" as="geometry">
            <mxPoint x="20.000000000000227" y="659" as="sourcePoint" />
            <mxPoint x="200" y="613" as="targetPoint" />
          </mxGeometry>
        </mxCell>
        <mxCell id="XWLTt_RECqJJCjPc9fA--26" value="&lt;font style=&quot;font-size: 13px;&quot;&gt;&amp;nbsp; prototype&amp;nbsp;&amp;nbsp;&lt;/font&gt;" style="edgeLabel;html=1;align=center;verticalAlign=middle;resizable=0;points=[];" parent="XWLTt_RECqJJCjPc9fA--25" vertex="1" connectable="0">
          <mxGeometry x="-0.1133" y="-1" relative="1" as="geometry">
            <mxPoint as="offset" />
          </mxGeometry>
        </mxCell>
        <mxCell id="XWLTt_RECqJJCjPc9fA--60" style="edgeStyle=orthogonalEdgeStyle;rounded=0;orthogonalLoop=1;jettySize=auto;html=1;entryX=0.008;entryY=0.667;entryDx=0;entryDy=0;entryPerimeter=0;" parent="1" source="XWLTt_RECqJJCjPc9fA--24" target="XWLTt_RECqJJCjPc9fA--17" edge="1">
          <mxGeometry relative="1" as="geometry">
            <Array as="points">
              <mxPoint x="-65" y="683" />
              <mxPoint x="90" y="683" />
            </Array>
          </mxGeometry>
        </mxCell>
        <mxCell id="XWLTt_RECqJJCjPc9fA--61" value="&amp;nbsp; __proto__&amp;nbsp;&amp;nbsp;" style="edgeLabel;html=1;align=center;verticalAlign=middle;resizable=0;points=[];" parent="XWLTt_RECqJJCjPc9fA--60" vertex="1" connectable="0">
          <mxGeometry x="0.0302" y="-1" relative="1" as="geometry">
            <mxPoint x="21" as="offset" />
          </mxGeometry>
        </mxCell>
        <mxCell id="XWLTt_RECqJJCjPc9fA--24" value="&lt;font style=&quot;font-size: 19px;&quot;&gt;Function&lt;br&gt;&lt;div style=&quot;color: rgb(212, 212, 212); background-color: rgb(30, 30, 30); font-family: Menlo, Monaco, &amp;quot;Courier New&amp;quot;, monospace; font-size: 12px; line-height: 18px;&quot;&gt;&lt;div style=&quot;line-height: 18px;&quot;&gt;f () { ... }&lt;/div&gt;&lt;/div&gt;&lt;/font&gt;&lt;div style=&quot;color: rgb(212, 212, 212); background-color: rgb(30, 30, 30); font-family: Menlo, Monaco, &amp;quot;Courier New&amp;quot;, monospace; line-height: 18px;&quot;&gt;&lt;font style=&quot;font-size: 12px;&quot;&gt;[object Function]&lt;/font&gt;&lt;/div&gt;" style="rounded=0;whiteSpace=wrap;html=1;" parent="1" vertex="1">
          <mxGeometry x="-130" y="585" width="130" height="70" as="geometry" />
        </mxCell>
        <mxCell id="XWLTt_RECqJJCjPc9fA--39" style="edgeStyle=orthogonalEdgeStyle;rounded=0;orthogonalLoop=1;jettySize=auto;html=1;entryX=0.701;entryY=0.021;entryDx=0;entryDy=0;entryPerimeter=0;" parent="1" edge="1">
          <mxGeometry relative="1" as="geometry">
            <mxPoint x="-201.95238095238096" y="700" as="sourcePoint" />
            <mxPoint x="-203.27199999999993" y="811.4699999999998" as="targetPoint" />
            <Array as="points">
              <mxPoint x="-203" y="700" />
              <mxPoint x="-203" y="756" />
            </Array>
          </mxGeometry>
        </mxCell>
        <mxCell id="XWLTt_RECqJJCjPc9fA--40" value="&lt;font style=&quot;font-size: 13px;&quot;&gt;prototype&lt;/font&gt;" style="edgeLabel;html=1;align=center;verticalAlign=middle;resizable=0;points=[];" parent="XWLTt_RECqJJCjPc9fA--39" vertex="1" connectable="0">
          <mxGeometry x="0.3053" y="-1" relative="1" as="geometry">
            <mxPoint x="4" as="offset" />
          </mxGeometry>
        </mxCell>
        <mxCell id="XWLTt_RECqJJCjPc9fA--41" style="edgeStyle=orthogonalEdgeStyle;rounded=0;orthogonalLoop=1;jettySize=auto;html=1;entryX=0.377;entryY=1.005;entryDx=0;entryDy=0;entryPerimeter=0;" parent="1" target="XWLTt_RECqJJCjPc9fA--17" edge="1">
          <mxGeometry relative="1" as="geometry">
            <mxPoint x="210" y="630" as="targetPoint" />
            <mxPoint x="-180" y="701" as="sourcePoint" />
            <Array as="points">
              <mxPoint x="-180" y="701" />
              <mxPoint x="-180" y="750" />
              <mxPoint x="248" y="750" />
            </Array>
          </mxGeometry>
        </mxCell>
        <mxCell id="XWLTt_RECqJJCjPc9fA--42" value="&lt;font style=&quot;font-size: 13px;&quot;&gt;&amp;nbsp; __proto__&amp;nbsp;&amp;nbsp;&lt;/font&gt;" style="edgeLabel;html=1;align=center;verticalAlign=middle;resizable=0;points=[];" parent="XWLTt_RECqJJCjPc9fA--41" vertex="1" connectable="0">
          <mxGeometry x="-0.0122" y="1" relative="1" as="geometry">
            <mxPoint as="offset" />
          </mxGeometry>
        </mxCell>
        <mxCell id="XWLTt_RECqJJCjPc9fA--32" value="&lt;font style=&quot;font-size: 19px;&quot;&gt;fn&lt;br&gt;&lt;div style=&quot;color: rgb(212, 212, 212); background-color: rgb(30, 30, 30); font-family: Menlo, Monaco, &amp;quot;Courier New&amp;quot;, monospace; font-size: 12px; line-height: 18px;&quot;&gt;&lt;div style=&quot;line-height: 18px;&quot;&gt;f fn { }&lt;/div&gt;&lt;/div&gt;&lt;/font&gt;&lt;div style=&quot;color: rgb(212, 212, 212); background-color: rgb(30, 30, 30); font-family: Menlo, Monaco, &amp;quot;Courier New&amp;quot;, monospace; line-height: 18px;&quot;&gt;&lt;font style=&quot;font-size: 12px;&quot;&gt;[object Function]&lt;/font&gt;&lt;/div&gt;" style="rounded=0;whiteSpace=wrap;html=1;" parent="1" vertex="1">
          <mxGeometry x="-280" y="630" width="130" height="70" as="geometry" />
        </mxCell>
        <mxCell id="XWLTt_RECqJJCjPc9fA--35" style="edgeStyle=orthogonalEdgeStyle;rounded=0;orthogonalLoop=1;jettySize=auto;html=1;exitX=0.5;exitY=0;exitDx=0;exitDy=0;entryX=0.104;entryY=0.026;entryDx=0;entryDy=0;entryPerimeter=0;" parent="1" source="XWLTt_RECqJJCjPc9fA--33" target="XWLTt_RECqJJCjPc9fA--34" edge="1">
          <mxGeometry relative="1" as="geometry">
            <mxPoint x="-380" y="827.5" as="sourcePoint" />
            <Array as="points">
              <mxPoint x="-400" y="790" />
              <mxPoint x="-262" y="790" />
            </Array>
          </mxGeometry>
        </mxCell>
        <mxCell id="XWLTt_RECqJJCjPc9fA--36" value="&lt;font style=&quot;font-size: 13px;&quot;&gt;&amp;nbsp; __proto__&amp;nbsp;&amp;nbsp;&lt;/font&gt;" style="edgeLabel;html=1;align=center;verticalAlign=middle;resizable=0;points=[];" parent="XWLTt_RECqJJCjPc9fA--35" vertex="1" connectable="0">
          <mxGeometry x="-0.2471" relative="1" as="geometry">
            <mxPoint x="25" y="-2" as="offset" />
          </mxGeometry>
        </mxCell>
        <mxCell id="XWLTt_RECqJJCjPc9fA--33" value="&lt;font style=&quot;font-size: 19px;&quot;&gt;f&lt;br&gt;&lt;div style=&quot;color: rgb(212, 212, 212); background-color: rgb(30, 30, 30); font-family: Menlo, Monaco, &amp;quot;Courier New&amp;quot;, monospace; font-size: 12px; line-height: 18px;&quot;&gt;&lt;div style=&quot;line-height: 18px;&quot;&gt;fn { }&lt;/div&gt;&lt;/div&gt;&lt;/font&gt;&lt;div style=&quot;color: rgb(212, 212, 212); background-color: rgb(30, 30, 30); font-family: Menlo, Monaco, &amp;quot;Courier New&amp;quot;, monospace; line-height: 18px;&quot;&gt;&lt;font style=&quot;font-size: 12px;&quot;&gt;[object Object]&lt;/font&gt;&lt;/div&gt;" style="rounded=0;whiteSpace=wrap;html=1;" parent="1" vertex="1">
          <mxGeometry x="-440" y="810" width="120" height="70" as="geometry" />
        </mxCell>
        <mxCell id="XWLTt_RECqJJCjPc9fA--37" style="edgeStyle=orthogonalEdgeStyle;rounded=0;orthogonalLoop=1;jettySize=auto;html=1;entryX=0.25;entryY=1;entryDx=0;entryDy=0;exitX=0.203;exitY=-0.006;exitDx=0;exitDy=0;exitPerimeter=0;" parent="1" source="XWLTt_RECqJJCjPc9fA--34" target="XWLTt_RECqJJCjPc9fA--32" edge="1">
          <mxGeometry relative="1" as="geometry">
            <mxPoint x="-247" y="800" as="sourcePoint" />
            <mxPoint x="-397" y="859" as="targetPoint" />
            <Array as="points">
              <mxPoint x="-247" y="810" />
              <mxPoint x="-247" y="755" />
            </Array>
          </mxGeometry>
        </mxCell>
        <mxCell id="XWLTt_RECqJJCjPc9fA--38" value="&lt;font style=&quot;font-size: 13px;&quot;&gt;&amp;nbsp; constructor&amp;nbsp;&amp;nbsp;&lt;/font&gt;" style="edgeLabel;html=1;align=center;verticalAlign=middle;resizable=0;points=[];" parent="XWLTt_RECqJJCjPc9fA--37" vertex="1" connectable="0">
          <mxGeometry x="0.1363" y="2" relative="1" as="geometry">
            <mxPoint x="-1" y="-1" as="offset" />
          </mxGeometry>
        </mxCell>
        <mxCell id="XWLTt_RECqJJCjPc9fA--34" value="&lt;font style=&quot;font-size: 19px;&quot;&gt;fn.prototype&lt;br&gt;&lt;div style=&quot;color: rgb(212, 212, 212); background-color: rgb(30, 30, 30); font-family: Menlo, Monaco, &amp;quot;Courier New&amp;quot;, monospace; font-size: 12px; line-height: 18px;&quot;&gt;&lt;div style=&quot;line-height: 18px;&quot;&gt;{ }&lt;/div&gt;&lt;/div&gt;&lt;/font&gt;&lt;div style=&quot;color: rgb(212, 212, 212); background-color: rgb(30, 30, 30); font-family: Menlo, Monaco, &amp;quot;Courier New&amp;quot;, monospace; line-height: 18px;&quot;&gt;&lt;font style=&quot;font-size: 12px;&quot;&gt;[object Function]&lt;/font&gt;&lt;/div&gt;" style="rounded=0;whiteSpace=wrap;html=1;" parent="1" vertex="1">
          <mxGeometry x="-275" y="810" width="128" height="70" as="geometry" />
        </mxCell>
        <mxCell id="XWLTt_RECqJJCjPc9fA--46" style="edgeStyle=orthogonalEdgeStyle;rounded=0;orthogonalLoop=1;jettySize=auto;html=1;entryX=0;entryY=0.75;entryDx=0;entryDy=0;exitX=1;exitY=0.75;exitDx=0;exitDy=0;" parent="1" source="XWLTt_RECqJJCjPc9fA--43" target="XWLTt_RECqJJCjPc9fA--18" edge="1">
          <mxGeometry relative="1" as="geometry">
            <mxPoint x="170" y="950" as="sourcePoint" />
            <mxPoint x="298" y="859.9999999999995" as="targetPoint" />
            <Array as="points">
              <mxPoint x="20" y="850" />
              <mxPoint x="190" y="850" />
            </Array>
          </mxGeometry>
        </mxCell>
        <mxCell id="XWLTt_RECqJJCjPc9fA--47" value="&lt;font style=&quot;font-size: 13px;&quot;&gt;prototype&lt;/font&gt;" style="edgeLabel;html=1;align=center;verticalAlign=middle;resizable=0;points=[];" parent="XWLTt_RECqJJCjPc9fA--46" vertex="1" connectable="0">
          <mxGeometry x="-0.3109" y="1" relative="1" as="geometry">
            <mxPoint x="29" y="-4" as="offset" />
          </mxGeometry>
        </mxCell>
        <mxCell id="XWLTt_RECqJJCjPc9fA--48" style="edgeStyle=orthogonalEdgeStyle;rounded=0;orthogonalLoop=1;jettySize=auto;html=1;" parent="1" source="XWLTt_RECqJJCjPc9fA--43" target="XWLTt_RECqJJCjPc9fA--17" edge="1">
          <mxGeometry relative="1" as="geometry">
            <mxPoint x="246" y="710" as="targetPoint" />
            <Array as="points">
              <mxPoint x="-60" y="770" />
              <mxPoint x="260" y="770" />
            </Array>
          </mxGeometry>
        </mxCell>
        <mxCell id="XWLTt_RECqJJCjPc9fA--49" value="&lt;font style=&quot;font-size: 13px;&quot;&gt;&amp;nbsp; __poto__&amp;nbsp;&amp;nbsp;&lt;/font&gt;" style="edgeLabel;html=1;align=center;verticalAlign=middle;resizable=0;points=[];" parent="XWLTt_RECqJJCjPc9fA--48" vertex="1" connectable="0">
          <mxGeometry x="-0.1709" y="-3" relative="1" as="geometry">
            <mxPoint as="offset" />
          </mxGeometry>
        </mxCell>
        <mxCell id="XWLTt_RECqJJCjPc9fA--43" value="&lt;font style=&quot;font-size: 19px;&quot;&gt;Object&lt;br&gt;&lt;div style=&quot;color: rgb(212, 212, 212); background-color: rgb(30, 30, 30); font-family: Menlo, Monaco, &amp;quot;Courier New&amp;quot;, monospace; font-size: 12px; line-height: 18px;&quot;&gt;&lt;div style=&quot;line-height: 18px;&quot;&gt;&amp;nbsp;f Object() { ... }&amp;nbsp;&lt;/div&gt;&lt;/div&gt;&lt;/font&gt;&lt;div style=&quot;color: rgb(212, 212, 212); background-color: rgb(30, 30, 30); font-family: Menlo, Monaco, &amp;quot;Courier New&amp;quot;, monospace; line-height: 18px;&quot;&gt;&lt;font style=&quot;font-size: 12px;&quot;&gt;[object Function]&lt;/font&gt;&lt;/div&gt;" style="rounded=0;whiteSpace=wrap;html=1;" parent="1" vertex="1">
          <mxGeometry x="-131" y="800" width="160" height="70" as="geometry" />
        </mxCell>
        <mxCell id="XWLTt_RECqJJCjPc9fA--58" style="edgeStyle=orthogonalEdgeStyle;rounded=0;orthogonalLoop=1;jettySize=auto;html=1;" parent="1" edge="1">
          <mxGeometry relative="1" as="geometry">
            <mxPoint x="57.99999999999977" y="500" as="sourcePoint" />
            <mxPoint x="160" y="500" as="targetPoint" />
          </mxGeometry>
        </mxCell>
        <mxCell id="XWLTt_RECqJJCjPc9fA--59" value="&lt;font style=&quot;font-size: 13px;&quot;&gt;&amp;nbsp; prototype&amp;nbsp;&amp;nbsp;&lt;/font&gt;" style="edgeLabel;html=1;align=center;verticalAlign=middle;resizable=0;points=[];" parent="XWLTt_RECqJJCjPc9fA--58" vertex="1" connectable="0">
          <mxGeometry x="-0.124" relative="1" as="geometry">
            <mxPoint as="offset" />
          </mxGeometry>
        </mxCell>
        <mxCell id="XWLTt_RECqJJCjPc9fA--62" style="edgeStyle=orthogonalEdgeStyle;rounded=0;orthogonalLoop=1;jettySize=auto;html=1;entryX=0.608;entryY=0.071;entryDx=0;entryDy=0;entryPerimeter=0;" parent="1" source="XWLTt_RECqJJCjPc9fA--54" target="XWLTt_RECqJJCjPc9fA--24" edge="1">
          <mxGeometry relative="1" as="geometry" />
        </mxCell>
        <mxCell id="XWLTt_RECqJJCjPc9fA--63" value="&lt;font style=&quot;font-size: 13px;&quot;&gt;__proto__&lt;/font&gt;" style="edgeLabel;html=1;align=center;verticalAlign=middle;resizable=0;points=[];" parent="XWLTt_RECqJJCjPc9fA--62" vertex="1" connectable="0">
          <mxGeometry x="-0.0229" y="2" relative="1" as="geometry">
            <mxPoint x="-2" y="-17" as="offset" />
          </mxGeometry>
        </mxCell>
        <mxCell id="XWLTt_RECqJJCjPc9fA--54" value="&lt;font style=&quot;font-size: 19px;&quot;&gt;GeneratorFunction&lt;br&gt;&lt;div style=&quot;color: rgb(212, 212, 212); background-color: rgb(30, 30, 30); font-family: Menlo, Monaco, &amp;quot;Courier New&amp;quot;, monospace; font-size: 12px; line-height: 18px;&quot;&gt;&lt;div style=&quot;line-height: 18px;&quot;&gt;&amp;nbsp;f GeneratorFunction&amp;nbsp;{ ... }&amp;nbsp;&lt;/div&gt;&lt;/div&gt;&lt;/font&gt;&lt;div style=&quot;color: rgb(212, 212, 212); background-color: rgb(30, 30, 30); font-family: Menlo, Monaco, &amp;quot;Courier New&amp;quot;, monospace; line-height: 18px;&quot;&gt;&lt;font style=&quot;font-size: 12px;&quot;&gt;[object Function]&lt;/font&gt;&lt;/div&gt;" style="rounded=0;whiteSpace=wrap;html=1;" parent="1" vertex="1">
          <mxGeometry x="-161.5" y="455" width="221" height="70" as="geometry" />
        </mxCell>
        <mxCell id="XWLTt_RECqJJCjPc9fA--73" style="edgeStyle=orthogonalEdgeStyle;rounded=0;orthogonalLoop=1;jettySize=auto;html=1;" parent="1" source="XWLTt_RECqJJCjPc9fA--66" edge="1">
          <mxGeometry relative="1" as="geometry">
            <mxPoint x="337" y="520" as="targetPoint" />
            <Array as="points">
              <mxPoint x="590" y="540" />
              <mxPoint x="337" y="540" />
            </Array>
          </mxGeometry>
        </mxCell>
        <mxCell id="XWLTt_RECqJJCjPc9fA--74" value="&lt;font style=&quot;font-size: 13px;&quot;&gt;&amp;nbsp;constructor&amp;nbsp;&lt;/font&gt;" style="edgeLabel;html=1;align=center;verticalAlign=middle;resizable=0;points=[];" parent="XWLTt_RECqJJCjPc9fA--73" vertex="1" connectable="0">
          <mxGeometry x="0.0933" y="5" relative="1" as="geometry">
            <mxPoint as="offset" />
          </mxGeometry>
        </mxCell>
        <mxCell id="XWLTt_RECqJJCjPc9fA--76" style="edgeStyle=orthogonalEdgeStyle;rounded=0;orthogonalLoop=1;jettySize=auto;html=1;entryX=0.681;entryY=-0.02;entryDx=0;entryDy=0;entryPerimeter=0;" parent="1" source="XWLTt_RECqJJCjPc9fA--66" target="XWLTt_RECqJJCjPc9fA--75" edge="1">
          <mxGeometry relative="1" as="geometry">
            <mxPoint x="620" y="609.9999999999995" as="targetPoint" />
          </mxGeometry>
        </mxCell>
        <mxCell id="XWLTt_RECqJJCjPc9fA--77" value="&lt;font style=&quot;font-size: 13px;&quot;&gt;__proto__&lt;/font&gt;" style="edgeLabel;html=1;align=center;verticalAlign=middle;resizable=0;points=[];" parent="XWLTt_RECqJJCjPc9fA--76" vertex="1" connectable="0">
          <mxGeometry x="-0.1535" y="-1" relative="1" as="geometry">
            <mxPoint as="offset" />
          </mxGeometry>
        </mxCell>
        <mxCell id="XWLTt_RECqJJCjPc9fA--66" value="&lt;font style=&quot;font-size: 19px;&quot;&gt;Generator&lt;br&gt;&lt;div style=&quot;color: rgb(212, 212, 212); background-color: rgb(30, 30, 30); font-family: Menlo, Monaco, &amp;quot;Courier New&amp;quot;, monospace; font-size: 12px; line-height: 18px;&quot;&gt;Generator&amp;nbsp;{}&lt;/div&gt;&lt;/font&gt;&lt;div style=&quot;color: rgb(212, 212, 212); background-color: rgb(30, 30, 30); font-family: Menlo, Monaco, &amp;quot;Courier New&amp;quot;, monospace; line-height: 18px;&quot;&gt;&lt;font style=&quot;font-size: 12px;&quot;&gt;[object Generator]&lt;/font&gt;&lt;/div&gt;" style="rounded=0;whiteSpace=wrap;html=1;strokeColor=#FF3333;" parent="1" vertex="1">
          <mxGeometry x="540" y="450" width="160" height="70" as="geometry" />
        </mxCell>
        <mxCell id="XWLTt_RECqJJCjPc9fA--78" style="edgeStyle=orthogonalEdgeStyle;rounded=0;orthogonalLoop=1;jettySize=auto;html=1;entryX=1;entryY=0.25;entryDx=0;entryDy=0;" parent="1" source="XWLTt_RECqJJCjPc9fA--75" target="XWLTt_RECqJJCjPc9fA--18" edge="1">
          <mxGeometry relative="1" as="geometry" />
        </mxCell>
        <mxCell id="XWLTt_RECqJJCjPc9fA--79" value="&lt;font style=&quot;font-size: 13px;&quot;&gt;__proto__&lt;/font&gt;" style="edgeLabel;html=1;align=center;verticalAlign=middle;resizable=0;points=[];" parent="XWLTt_RECqJJCjPc9fA--78" vertex="1" connectable="0">
          <mxGeometry x="0.1208" y="-1" relative="1" as="geometry">
            <mxPoint as="offset" />
          </mxGeometry>
        </mxCell>
        <mxCell id="sGgiayyM3UHPCmAd2KGd-15" style="edgeStyle=orthogonalEdgeStyle;rounded=0;orthogonalLoop=1;jettySize=auto;html=1;entryX=0.532;entryY=0.016;entryDx=0;entryDy=0;entryPerimeter=0;" edge="1" parent="1">
          <mxGeometry relative="1" as="geometry">
            <mxPoint x="620.0588235294117" y="699.9999999999998" as="sourcePoint" />
            <mxPoint x="619.8820000000005" y="781.1199999999999" as="targetPoint" />
            <Array as="points">
              <mxPoint x="620" y="720" />
              <mxPoint x="620" y="720" />
            </Array>
          </mxGeometry>
        </mxCell>
        <mxCell id="sGgiayyM3UHPCmAd2KGd-16" value="&lt;font style=&quot;font-size: 13px;&quot;&gt;[Symbol.iterator]&lt;/font&gt;" style="edgeLabel;html=1;align=center;verticalAlign=middle;resizable=0;points=[];" vertex="1" connectable="0" parent="sGgiayyM3UHPCmAd2KGd-15">
          <mxGeometry x="-0.2058" y="-3" relative="1" as="geometry">
            <mxPoint x="3" y="8" as="offset" />
          </mxGeometry>
        </mxCell>
        <mxCell id="XWLTt_RECqJJCjPc9fA--75" value="&lt;font style=&quot;font-size: 19px;&quot;&gt;{Symbol(Symbol.iterator): ƒ}&lt;br&gt;&lt;div style=&quot;color: rgb(212, 212, 212); background-color: rgb(30, 30, 30); font-family: Menlo, Monaco, &amp;quot;Courier New&amp;quot;, monospace; font-size: 12px; line-height: 18px;&quot;&gt;{Symbol(Symbol.iterator): ƒ}&lt;/div&gt;&lt;/font&gt;&lt;div style=&quot;color: rgb(212, 212, 212); background-color: rgb(30, 30, 30); font-family: Menlo, Monaco, &amp;quot;Courier New&amp;quot;, monospace; line-height: 18px;&quot;&gt;&lt;font style=&quot;font-size: 12px;&quot;&gt;[object Object]&lt;/font&gt;&lt;/div&gt;" style="rounded=0;whiteSpace=wrap;html=1;" parent="1" vertex="1">
          <mxGeometry x="450" y="630" width="250" height="70" as="geometry" />
        </mxCell>
        <mxCell id="XWLTt_RECqJJCjPc9fA--84" value="&lt;div style=&quot;text-align: left; font-size: 15px;&quot;&gt;&lt;span style=&quot;background-color: initial;&quot;&gt;&lt;font color=&quot;#ff3333&quot; style=&quot;font-size: 15px;&quot;&gt;next()&lt;/font&gt;&lt;/span&gt;&lt;/div&gt;&lt;div style=&quot;text-align: left; font-size: 15px;&quot;&gt;&lt;span style=&quot;background-color: initial;&quot;&gt;&lt;font color=&quot;#ff3333&quot; style=&quot;font-size: 15px;&quot;&gt;return()&lt;/font&gt;&lt;/span&gt;&lt;/div&gt;&lt;div style=&quot;text-align: left; font-size: 15px;&quot;&gt;&lt;span style=&quot;background-color: initial;&quot;&gt;&lt;font color=&quot;#ff3333&quot; style=&quot;font-size: 15px;&quot;&gt;throw()&lt;/font&gt;&lt;/span&gt;&lt;/div&gt;" style="text;html=1;strokeColor=none;fillColor=none;align=center;verticalAlign=middle;whiteSpace=wrap;rounded=0;" parent="1" vertex="1">
          <mxGeometry x="500" y="425" width="60" height="30" as="geometry" />
        </mxCell>
        <mxCell id="sGgiayyM3UHPCmAd2KGd-18" style="edgeStyle=orthogonalEdgeStyle;rounded=0;orthogonalLoop=1;jettySize=auto;html=1;entryX=0.75;entryY=1;entryDx=0;entryDy=0;exitX=0.25;exitY=0;exitDx=0;exitDy=0;" edge="1" parent="1" source="sGgiayyM3UHPCmAd2KGd-3" target="XWLTt_RECqJJCjPc9fA--17">
          <mxGeometry relative="1" as="geometry">
            <Array as="points">
              <mxPoint x="510" y="730" />
              <mxPoint x="315" y="730" />
            </Array>
          </mxGeometry>
        </mxCell>
        <mxCell id="sGgiayyM3UHPCmAd2KGd-19" value="&lt;font style=&quot;font-size: 13px;&quot;&gt;&amp;nbsp; __proto__&amp;nbsp;&amp;nbsp;&lt;/font&gt;" style="edgeLabel;html=1;align=center;verticalAlign=middle;resizable=0;points=[];" vertex="1" connectable="0" parent="sGgiayyM3UHPCmAd2KGd-18">
          <mxGeometry x="-0.2202" y="-1" relative="1" as="geometry">
            <mxPoint x="-1" as="offset" />
          </mxGeometry>
        </mxCell>
        <mxCell id="sGgiayyM3UHPCmAd2KGd-3" value="&lt;font style=&quot;font-size: 19px;&quot;&gt;g[Symbol.iterator]&lt;br&gt;&lt;div style=&quot;color: rgb(212, 212, 212); background-color: rgb(30, 30, 30); font-family: Menlo, Monaco, &amp;quot;Courier New&amp;quot;, monospace; font-size: 12px; line-height: 18px;&quot;&gt;&amp;nbsp;ƒ [symbol.iterator]() { ... }&amp;nbsp;&lt;/div&gt;&lt;/font&gt;&lt;div style=&quot;color: rgb(212, 212, 212); background-color: rgb(30, 30, 30); font-family: Menlo, Monaco, &amp;quot;Courier New&amp;quot;, monospace; line-height: 18px;&quot;&gt;&lt;font style=&quot;font-size: 12px;&quot;&gt;[object &lt;/font&gt;Generator]&lt;/div&gt;" style="rounded=0;whiteSpace=wrap;html=1;" vertex="1" parent="1">
          <mxGeometry x="450" y="780" width="238.5" height="70" as="geometry" />
        </mxCell>
        <mxCell id="sGgiayyM3UHPCmAd2KGd-13" value="&lt;font style=&quot;font-size: 20px;&quot;&gt;&lt;br&gt;&lt;br&gt;&lt;div style=&quot;color: rgb(212, 212, 212); background-color: rgb(30, 30, 30); font-family: Menlo, Monaco, &amp;quot;Courier New&amp;quot;, monospace; line-height: 140%;&quot;&gt;&lt;div style=&quot;line-height: 140%;&quot;&gt;&lt;div style=&quot;line-height: 140%;&quot;&gt;function &lt;span style=&quot;color: #569cd6;&quot;&gt;*&lt;/span&gt;gen() { }&lt;/div&gt;&lt;div style=&quot;line-height: 140%;&quot;&gt;&lt;span style=&quot;color: #569cd6;&quot;&gt;const&lt;/span&gt; g = gen();&lt;/div&gt;&lt;div style=&quot;line-height: 140%;&quot;&gt;&lt;span style=&quot;color: #569cd6;&quot;&gt;function&lt;/span&gt; fn() {}&lt;/div&gt;&lt;/div&gt;&lt;div style=&quot;line-height: 140%;&quot;&gt;&lt;span style=&quot;&quot;&gt;f = &lt;/span&gt;&lt;span style=&quot;color: rgb(86, 156, 214);&quot;&gt;new&lt;/span&gt;&lt;span style=&quot;&quot;&gt; fn();&lt;/span&gt;&lt;/div&gt;&lt;div style=&quot;line-height: 140%;&quot;&gt;&lt;br&gt;&lt;/div&gt;&lt;div style=&quot;line-height: 140%;&quot;&gt;&lt;span style=&quot;color: #569cd6;&quot;&gt;const&lt;/span&gt; Generator = gen.prototype.__proto__;&lt;/div&gt;&lt;div style=&quot;line-height: 140%;&quot;&gt;&lt;span style=&quot;color: #569cd6;&quot;&gt;const&lt;/span&gt; GeneratorFunction = gen.__proto__.constructor;&lt;/div&gt;&lt;/div&gt;&lt;/font&gt;" style="text;html=1;strokeColor=none;fillColor=none;align=left;verticalAlign=middle;whiteSpace=wrap;rounded=0;" vertex="1" parent="1">
          <mxGeometry x="-520" y="242.5" width="330" height="312.5" as="geometry" />
        </mxCell>
        <mxCell id="sGgiayyM3UHPCmAd2KGd-14" value="&lt;h1 style=&quot;border-color: var(--border-color);&quot;&gt;生成器函数原型图&lt;/h1&gt;&lt;div style=&quot;border-color: var(--border-color); font-size: 23px;&quot;&gt;&lt;br style=&quot;border-color: var(--border-color); text-align: left;&quot;&gt;&lt;/div&gt;" style="text;html=1;strokeColor=none;fillColor=none;align=center;verticalAlign=middle;whiteSpace=wrap;rounded=0;" vertex="1" parent="1">
          <mxGeometry x="-480" y="220" width="230" height="60" as="geometry" />
        </mxCell>
      </root>
    </mxGraphModel>
  </diagram>
</mxfile>
